<?xml version="1.0" encoding="utf-8"?>
<!-- Generator: Adobe Illustrator 18.0.0, SVG Export Plug-In . SVG Version: 6.00 Build 0)  -->
<!DOCTYPE svg PUBLIC "-//W3C//DTD SVG 1.1//EN" "http://www.w3.org/Graphics/SVG/1.1/DTD/svg11.dtd">
<svg version="1.1" id="Layer_1" xmlns="http://www.w3.org/2000/svg" xmlns:xlink="http://www.w3.org/1999/xlink" x="0px" y="0px"
	 viewBox="0 0 960 560" enable-background="new 0 0 960 560" xml:space="preserve">
<g>
	<g>
		<g>
			<path fill="#F3DF72" d="M3.2,442.3c1.6,1,3.9,1.8,6.3,1.8c3.6,0,5.7-1.9,5.7-4.6c0-2.5-1.5-4-5.1-5.4c-4.4-1.6-7.2-3.9-7.2-7.7
				c0-4.2,3.5-7.4,8.8-7.4c2.8,0,4.8,0.6,6,1.3l-1,2.9c-0.9-0.5-2.7-1.3-5.2-1.3c-3.7,0-5.1,2.2-5.1,4.1c0,2.5,1.7,3.8,5.4,5.2
				c4.6,1.8,6.9,4,6.9,8c0,4.2-3.1,7.8-9.5,7.8c-2.6,0-5.5-0.8-6.9-1.7L3.2,442.3z"/>
			<path fill="#F3DF72" d="M69.9,433.8H59.3v9.8h11.8v2.9H55.8v-27.2h14.7v2.9H59.3v8.6h10.6V433.8z"/>
			<path fill="#F3DF72" d="M107.9,419.7c1.8-0.4,4.3-0.6,6.7-0.6c3.8,0,6.2,0.7,7.9,2.2c1.4,1.2,2.1,3.1,2.1,5.2
				c0,3.6-2.3,6-5.1,6.9v0.1c2.1,0.7,3.4,2.7,4,5.5c0.9,3.8,1.5,6.4,2.1,7.5h-3.6c-0.4-0.8-1.1-3.1-1.8-6.5
				c-0.8-3.8-2.3-5.2-5.4-5.3h-3.3v11.8h-3.5V419.7z M111.4,432.1h3.6c3.8,0,6.1-2.1,6.1-5.2c0-3.5-2.5-5-6.3-5.1
				c-1.7,0-2.9,0.2-3.5,0.3V432.1z"/>
			<path fill="#F3DF72" d="M168.4,446.6l-8.9-27.2h3.8l4.2,13.4c1.2,3.7,2.2,7,2.9,10.2h0.1c0.8-3.1,1.9-6.6,3.1-10.1l4.6-13.4h3.8
				l-9.7,27.2H168.4z"/>
			<path fill="#F3DF72" d="M220.7,419.3v27.2h-3.5v-27.2H220.7z"/>
			<path fill="#F3DF72" d="M278,445.7c-1.3,0.6-3.9,1.3-7.2,1.3c-7.7,0-13.4-4.8-13.4-13.8c0-8.5,5.8-14.3,14.2-14.3
				c3.4,0,5.5,0.7,6.5,1.2l-0.8,2.9c-1.3-0.6-3.2-1.1-5.5-1.1c-6.4,0-10.6,4.1-10.6,11.2c0,6.7,3.8,10.9,10.5,10.9
				c2.1,0,4.3-0.4,5.7-1.1L278,445.7z"/>
			<path fill="#F3DF72" d="M318.1,419.3v27.2h-3.5v-27.2H318.1z"/>
			<path fill="#F3DF72" d="M379.7,432.7c0,9.4-5.7,14.3-12.6,14.3c-7.2,0-12.2-5.6-12.2-13.8c0-8.6,5.4-14.3,12.6-14.3
				C374.9,418.9,379.7,424.6,379.7,432.7z M358.6,433.1c0,5.8,3.1,11,8.7,11c5.6,0,8.7-5.1,8.7-11.3c0-5.4-2.8-11.1-8.7-11.1
				C361.5,421.8,358.6,427.1,358.6,433.1z"/>
			<path fill="#F3DF72" d="M416,442.3c1.6,1,3.9,1.8,6.3,1.8c3.6,0,5.7-1.9,5.7-4.6c0-2.5-1.5-4-5.1-5.4c-4.4-1.6-7.2-3.9-7.2-7.7
				c0-4.2,3.5-7.4,8.8-7.4c2.8,0,4.8,0.6,6,1.3l-1,2.9c-0.9-0.5-2.7-1.3-5.2-1.3c-3.7,0-5.1,2.2-5.1,4.1c0,2.5,1.7,3.8,5.4,5.2
				c4.6,1.8,6.9,4,6.9,8c0,4.2-3.1,7.8-9.5,7.8c-2.6,0-5.5-0.8-6.9-1.7L416,442.3z"/>
			<path fill="#F3DF72" d="M513.8,438l-2.8,8.6h-3.6l9.2-27.2h4.2l9.3,27.2h-3.8l-2.9-8.6H513.8z M522.7,435.3l-2.7-7.8
				c-0.6-1.8-1-3.4-1.4-5h-0.1c-0.4,1.6-0.8,3.3-1.4,4.9l-2.7,7.9H522.7z"/>
			<path fill="#F3DF72" d="M586.4,445.3c-1.6,0.6-4.7,1.5-8.4,1.5c-4.1,0-7.5-1.1-10.2-3.6c-2.3-2.3-3.8-5.9-3.8-10.1
				c0-8.1,5.6-14.1,14.7-14.1c3.1,0,5.6,0.7,6.8,1.3l-0.8,2.9c-1.5-0.6-3.3-1.2-6-1.2c-6.6,0-10.9,4.1-10.9,10.9
				c0,6.9,4.2,11,10.5,11c2.3,0,3.9-0.3,4.7-0.7v-8.1h-5.5v-2.8h9V445.3z"/>
			<path fill="#F3DF72" d="M623.9,419.7c1.8-0.4,4.3-0.6,6.7-0.6c3.8,0,6.2,0.7,7.9,2.2c1.4,1.2,2.1,3.1,2.1,5.2
				c0,3.6-2.3,6-5.1,6.9v0.1c2.1,0.7,3.4,2.7,4,5.5c0.9,3.8,1.5,6.4,2.1,7.5H638c-0.4-0.8-1.1-3.1-1.8-6.5c-0.8-3.8-2.3-5.2-5.4-5.3
				h-3.3v11.8h-3.5V419.7z M627.4,432.1h3.6c3.8,0,6.1-2.1,6.1-5.2c0-3.5-2.5-5-6.3-5.1c-1.7,0-2.9,0.2-3.5,0.3V432.1z"/>
			<path fill="#F3DF72" d="M685.5,413.2l-5.2,4.7h-2.9l3.7-4.7H685.5z M681.4,419.3v27.2h-3.5v-27.2H681.4z"/>
			<path fill="#F3DF72" d="M738.7,445.7c-1.3,0.6-3.9,1.3-7.2,1.3c-7.7,0-13.4-4.8-13.4-13.8c0-8.5,5.8-14.3,14.2-14.3
				c3.4,0,5.5,0.7,6.5,1.2l-0.8,2.9c-1.3-0.6-3.2-1.1-5.5-1.1c-6.4,0-10.6,4.1-10.6,11.2c0,6.7,3.8,10.9,10.5,10.9
				c2.1,0,4.3-0.4,5.7-1.1L738.7,445.7z"/>
			<path fill="#F3DF72" d="M797.7,432.7c0,9.4-5.7,14.3-12.6,14.3c-7.2,0-12.2-5.6-12.2-13.8c0-8.6,5.4-14.3,12.6-14.3
				C792.9,418.9,797.7,424.6,797.7,432.7z M776.6,433.1c0,5.8,3.1,11,8.7,11c5.6,0,8.7-5.1,8.7-11.3c0-5.4-2.8-11.1-8.7-11.1
				C779.5,421.8,776.6,427.1,776.6,433.1z"/>
			<path fill="#F3DF72" d="M834.5,419.3h3.5v24.3h11.6v2.9h-15.1V419.3z"/>
			<path fill="#F3DF72" d="M890.2,438l-2.8,8.6h-3.6l9.2-27.2h4.2l9.3,27.2h-3.8l-2.9-8.6H890.2z M899.1,435.3l-2.7-7.8
				c-0.6-1.8-1-3.4-1.4-5h-0.1c-0.4,1.6-0.8,3.3-1.4,4.9l-2.7,7.9H899.1z"/>
			<path fill="#F3DF72" d="M942.2,442.3c1.6,1,3.9,1.8,6.3,1.8c3.6,0,5.7-1.9,5.7-4.6c0-2.5-1.5-4-5.1-5.4c-4.4-1.6-7.2-3.9-7.2-7.7
				c0-4.2,3.5-7.4,8.8-7.4c2.8,0,4.8,0.6,6,1.3l-1,2.9c-0.9-0.5-2.7-1.3-5.2-1.3c-3.7,0-5.1,2.2-5.1,4.1c0,2.5,1.7,3.8,5.4,5.2
				c4.6,1.8,6.9,4,6.9,8c0,4.2-3.1,7.8-9.5,7.8c-2.6,0-5.5-0.8-6.9-1.7L942.2,442.3z"/>
		</g>
		<rect x="4.2" y="398" fill="#F3DF72" width="951" height="3.1"/>
	</g>
	<g>
		<path fill="#F3DF72" d="M9,124.1h90.2v30H48.5v50.3h40.8v30.3H48.5v120.8H9V124.1z"/>
		<path fill="#F3DF72" d="M196.4,355.4h-37c-11.9,0-20.5-2.4-25.8-7.2c-5.3-4.8-8-13.2-8-25.3V124.1h39.2v192.8
			c0,3.2,0.7,5.4,2.1,6.5c1.4,1.2,3.6,1.8,6.5,1.8h21.3V124.1h38.9V350l-37.3,13.1V355.4z"/>
		<path fill="#F3DF72" d="M358.2,154.1h-30v201.4h-38.9V154.1h-30v-30h98.8V154.1z"/>
		<path fill="#F3DF72" d="M402.5,154.1h-18.8v-30h84.8l25.8,231.3h-37.9l-2.2-27.7h-35l-2.5,27.7h-38.2L402.5,154.1z M450.9,298.4
			l-14.7-145.3l-14.7,145.3H450.9z"/>
		<path fill="#F3DF72" d="M520.1,124.1h37.3L595,238.8l37.9-114.7h37.3v231.3H631V244.2l-36,105.5l-35.4-104.8v110.6h-39.5V124.1z"
			/>
		<path fill="#F3DF72" d="M722.1,154.1h-18.8v-30H788l25.8,231.3h-37.9l-2.2-27.7h-35l-2.5,27.7h-38.2L722.1,154.1z M770.5,298.4
			l-14.7-145.3l-14.7,145.3H770.5z"/>
		<path fill="#F3DF72" d="M876.9,355.4H868c-5.9,0-10.8-0.3-14.5-1c-3.7-0.6-6.6-2-8.8-4c-2.1-2-3.6-4.8-4.5-8.4
			c-0.9-3.6-1.3-8.4-1.3-14.3V151.8c0-5.9,0.4-10.7,1.3-14.3c0.8-3.6,2.3-6.4,4.5-8.4c2.1-2,5-3.3,8.8-4c3.7-0.6,8.5-1,14.5-1h49.4
			c5.9,0,10.8,0.3,14.7,1c3.8,0.6,6.8,2,9.1,4c2.2,2,3.8,4.8,4.6,8.4c0.8,3.6,1.3,8.4,1.3,14.3v175.9c0,5.7-0.4,10.4-1.1,14
			c-0.7,3.6-2.1,6.4-4.1,8.4c-2,2-4.8,3.4-8.3,4.1c-3.5,0.7-8.1,1.1-13.9,1.1H911V380h-34.1V355.4z M898.6,326.7
			c4.2,0,6.9-0.5,7.8-1.4c1-1,1.4-3.6,1.4-7.8V162c0-4.2-0.5-6.8-1.4-7.8c-1-1-3.6-1.4-7.8-1.4h-11.5c-4.3,0-6.9,0.5-7.8,1.4
			c-1,1-1.4,3.6-1.4,7.8v155.5c0,4.3,0.5,6.9,1.4,7.8c1,1,3.6,1.4,7.8,1.4H898.6z"/>
	</g>
</g>
</svg>
