<?xml version="1.0" encoding="utf-8"?>
<!-- Generator: Adobe Illustrator 18.0.0, SVG Export Plug-In . SVG Version: 6.00 Build 0)  -->
<!DOCTYPE svg PUBLIC "-//W3C//DTD SVG 1.1//EN" "http://www.w3.org/Graphics/SVG/1.1/DTD/svg11.dtd">
<svg version="1.1" id="Layer_1" xmlns="http://www.w3.org/2000/svg" xmlns:xlink="http://www.w3.org/1999/xlink" x="0px" y="0px"
	 viewBox="0 0 638.5 449" enable-background="new 0 0 638.5 449" xml:space="preserve">
<g>
	<g>
		<path fill="#394743" d="M1.9,385.1v-61.6h62.3v10.8h-48v16.2h25.9v11.2H16.2v23.4H1.9z"/>
		<path fill="#394743" d="M96.3,323.5v50h40.8v-50h14.3v47c0,5.6-1,9.5-3.1,11.5s-6.1,3.1-12.1,3.1H97.2c-5.9,0-10-1-12.1-3.1
			c-2.1-2-3.2-5.9-3.2-11.5v-47H96.3z"/>
		<path fill="#394743" d="M211.6,334.5v50.6h-14.3v-50.6H169v-11h71v11H211.6z"/>
		<path fill="#394743" d="M237.7,385.1l34.8-61.6h13.8l35.3,61.6h-16.1l-7.4-13.5h-39l-7.2,13.5H237.7z M265.2,360.5h27l-13.3-25.1
			L265.2,360.5z"/>
		<path fill="#394743" d="M341.3,385.1v-61.6h11.6l29,37.2l28.4-37.2h11.5v61.6h-13.3v-38.1c0-0.7,0-1.7,0.1-2.8
			c0.1-1.1,0.2-2.4,0.4-3.8c-0.8,1.6-1.5,2.9-2,3.9c-0.6,1-1.1,1.9-1.6,2.5l-23.1,30.8h-2.9l-23.2-30.9c-0.9-1.2-1.6-2.3-2.2-3.3
			c-0.6-1-1.1-2-1.5-3c0.1,1.3,0.2,2.4,0.3,3.5c0.1,1,0.1,2.1,0.1,3v38.1H341.3z"/>
		<path fill="#394743" d="M440.2,385.1l34.8-61.6h13.8l35.3,61.6H508l-7.4-13.5h-39l-7.2,13.5H440.2z M467.7,360.5h27l-13.3-25.1
			L467.7,360.5z"/>
		<path fill="#394743" d="M540.5,338.1c0-5.6,1-9.4,3.1-11.5c2.1-2.1,6.1-3.1,12.1-3.1h45.3c6,0,10,1,12.1,3.1
			c2.1,2.1,3.1,5.9,3.1,11.5v32.5c0,5.6-1,9.5-3.1,11.5c-2.1,2-6.1,3.1-12.1,3.1h-6.6l7.8,15.8H588l-6.9-15.8h-25.3
			c-6,0-10-1-12.1-3.1c-2.1-2-3.1-5.9-3.1-11.5V338.1z M554.9,373.5H576l-5.7-13.3l10.4-4.2l8.3,17.5h13.2v-39h-47.3V373.5z"/>
	</g>
	
		<text transform="matrix(1 0 0 1 2.441406e-04 442.5366)" fill="#394743" font-family="'MyriadPro-Regular'" font-size="26" letter-spacing="20">servicios agrícolas</text>
	<rect x="2.3" y="411.2" fill="#394743" width="612.6" height="2"/>
	<polygon fill="#394743" points="614.6,240.3 614.7,309 595.2,309 	"/>
	<g>
		<path fill="#394743" d="M270,243.4c-0.3-1.3-0.7-2.6-1.2-3.9L0.9,309h81.8l190.6-57C271.9,249.3,270.8,246.5,270,243.4z"/>
	</g>
	<g>
		<path fill="#394743" d="M453.3,228.4c-2.3-2.2-3.7-5.2-4.2-8.6l-9.4,3c-3.6,5.7-9.4,6.7-12.5,7.1c-0.3,0.1-0.6,0.3-0.9,0.5
			c-0.4,0.2-0.8,0.4-1.2,0.7c0,3.2-0.4,6.2-0.8,8.4L453.3,228.4z"/>
		<path fill="#394743" d="M298.2,277.7c-0.8-0.8-2.3-1.8-3.9-2.9c-1.1-0.7-2.1-1.4-3.3-2.2c-0.3-0.2-0.8-0.5-1.3-0.9
			c-0.3-0.2-0.7-0.4-1-0.7L170.4,309h71.8l65.3-24.9C304.6,283,301.3,281.1,298.2,277.7z"/>
	</g>
	<g>
		<path fill="#394743" d="M495.8,239.5c-1.2-1-2.3-2.1-3.4-3.1L336,309h52l113.4-64.7C499.6,242.8,497.8,241.2,495.8,239.5z"/>
	</g>
	<g>
		<path fill="#394743" d="M540.4,259.1c-0.2-0.1-0.6-0.4-2.2-0.4c-0.9,0-1.9,0.1-2.8,0.2c-0.7,0.1-1.4,0.1-2.1,0.1
			c-2.8,0-5.2-0.6-7.3-1.4L451.8,309h33.6l56.2-49.1C541.2,259.6,540.8,259.4,540.4,259.1z"/>
	</g>
	<g>
		<path fill="#394743" d="M614.4,210.1l0.2-0.3L614.4,210.1C614.4,210.1,614.4,210.1,614.4,210.1z"/>
		<path fill="#394743" d="M595.2,244.5c-0.2,0.3-0.5,0.7-0.8,1.3c-1.6,3.1-4.9,9.6-14.1,9.6c-0.7,0-1.5,0-2.3-0.1L535.2,309h27.7
			l34-65.2C596.4,244,595.8,244.3,595.2,244.5z"/>
	</g>
	<g>
		<g>
			<path fill="#394743" d="M609.7,188.7c-0.1-2.2,0.1-5.1,1.4-6.7c3.9-5.2,4.2-7.9-0.2-12.8c-2.5-2.8-2.8-5.5-0.3-8.3
				c2.2-2.5,2.1-5.3,0.4-7.9c-1.1-1.7-2.9-3-3.9-4.8c-0.9-1.5-2.1-3.8-1.6-5.1c1.6-4.6-0.5-7.5-3.7-10c-1.2-1-2.5-1.8-3.7-2.9
				c-2.5-2.4-2.2-8.7,0.3-9.9c5.6-2.6,5.9-3.6,1.5-7.9c-10-10-19.3-16.6-32.9-20.5c-5.9-1.7-15.1-2.1-15.8-2.1
				c-6.4-0.1-8.2,0.5-8.1-0.6c0.2-3.4,0-6.8-0.2-10.2c-0.1-1.1-0.6-2.4-1.3-3.1c-2.9-2.5-3.2-5.7-3.4-9.2c-0.2-3.4-2.8-23.7-2-31.6
				c0.3-3,2.1-5.4,2.1-5.4l11.8-1.8l0.7-12.4l-4.6-1.7c0,0-8,1.3-11.9,0.8c-6.8-0.9-76.1-14.4-76.1-14.4s-4.6-0.1-8,0
				c-5.1,0.1-9.7,0.8-14.4,2.6c-6.8,2.6-13.7,4.8-20.3,7.7c-6.9,2.9-13.6,6.2-20.2,9.7c-3.7,2,0.4,10.2,11.2,12.3
				c0.1,0.6-0.2,1.9-0.9,7.5c-1.1,8.4-2,16.5-3,24.8c0.3,0,0.6,0.1,0.8,0.1c1.1-8.3,2-16.5,3.2-24.8c1.1-7.1,2.6-6.7,3.3-6.9
				c6.6-1.5,13.3-2.8,20-4c1-0.2,2.8,0,3.2,0.6c2.6,4.1,6.5,7.7,6.1,13.1c-0.7,11.9-1.5,23.7-2.4,35.6c-0.1,1.5,0.6,7.9,1.5,15.8
				c0.1,1.1,4.8-0.6,4.4,1.9c-1.8,11.1-0.8,28.7-0.6,33.9c-0.9-0.8-15.6-0.2-15.6-0.2s0.2-8.8-0.4-21.4c-0.5-11.6-1.3-22.9-1.4-23.2
				c-2.2-0.2-6.4-0.2-8.7-0.3c-34.1-1.8-67.9,1.8-101.7,5.4c-8.2,0.9-18.3,2.3-32.8,4.6c0,0,8.2-5.3,15-6.3
				c37.3-5.3,79.1-8.2,81.4-8.4c0,0,41.8-0.2,45.9-0.6c-0.1-0.5-2.2-5.9-2.2-5.9c-3.7-2.1-30.2,0.1-37.1-0.8c0-9.1,0-16.4,0-24.9
				c0-8.1-3.1-15.5-9.8-19.1c-1.2-0.6-2.8-1.6-4.2-2c-2.3,6.7-0.3,10-0.3,10s4.9,4.2,4.9,7.8c0,6.7,0,13.5,0,20.2c0,6.1,0,8.1-1.5,9
				c-18.7,0.9-59.7,5.7-73.7,7.7c-16.2,2.3-41.7,8.6-49.9,12.8c-10.1,5.2-10.9,9.1-10.9,9.1l0,0c-0.3,0.7-0.3,1.7-0.1,3
				c1.3,9.3,2.6,18.7,4.3,28c1.5,8,3.7,15.9,5.5,23.8c1,4.6-0.2,5.8-4.4,4.4c0.3-1.4-4.1-3.5-5.6-2.8c-2.8-4.9-5.6-9.8-8.4-14.7
				c-0.3-0.5-5.3-3.1-6.4-4.7c-1.5-2-3.8-4.3-3.4-6.8c0.5-2.9-1.4-5.1-4.3-3.9c-0.6,0.3-2.7,1.7-3.2,2.4c-0.8,1.3-0.1,4.5,2,4.8
				c2.6,0.4,4.5,4.1,4.8,6.3c0.5,4.7,3.7,8.9,3.6,13.1c-0.1,5,4.3,16.5,4.2,18.1c-0.6,10.2-1.2,20.4-2.1,30.6
				c-0.3,4,3.9,9.6,3.9,9.6l8,9.7c0,0,27.6-0.9,31.3-1.4c3-0.4,4.6,1.1,5.5,3.7c1.5,4.5,3.5,9,4.7,13.6c2,7.7,7,13.5,11.8,19.5
				c1.4,1.7,3.6,2.9,5.5,4.2c2.9,2.1,6.2,3.8,8.6,6.3c3.1,3.3,6.7,5,10.7,4.1c4.9-1,9.2,0.3,13.6,1.9c1.3,0.5,2.8,1.5,3.5,2.7
				c2.4,3.7,4.9,4.4,8.5,2c1.3-0.9,2.5-1.9,3.8-2.7c3.8-2.1,8.6-2.2,10.1,0c2.3,3.4,5.1,2.5,7.8,1.3c2-0.9,3.6-2.5,5.6-3.5
				c3-1.6,5.9-3.1,9.4-0.5c0.8,0.6,3.3,0.3,4.2-0.5c3.9-3.5,7.4-7.4,11.1-11c0.9-0.9,2.1-1.9,3.3-2.1c4.5-0.8,6.9-3.4,7.2-8
				c0.1-2.4,0.3-4.9,1-7.2c0.3-1.1,2-2.7,2.8-2.6c4.6,0.6,5.5-2.5,6.1-5.8c0.5-2.9,0.9-5.9,0.9-8.8c0-2.8-1.1-5.7,3-6.8
				c2.6-0.7,4.8-3,7.4-3.3c4.4-0.5,6.1-1.3,7-5.7c0.3-1.5,0.5-3.1,0.8-4.6c0.5-3.2,2-5,5.7-5c5.2-0.1,10.3-0.8,15.5-1.3
				c2.1-0.2,3.1,0.4,3.3,2.7c0.3,4,1,8,1.3,12c0.2,2.8,1.8,4.2,4.3,4.8c1.6,0.4,3.3,0.8,5,0.7c7-0.5,14.2,1.5,21.1-1.5
				c1-0.4,3.2,1.1,4.5,2.2c3,2.5,5.7,5.3,8.6,7.8c3.6,3.1,7.3,6.2,11,9.2c1,0.8,2.5,1.1,3.8,1.6c3.2,1.4,6.6,2.5,9.7,4.2
				c2.4,1.4,4.5,2.2,7.5,2c3.9-0.4,8.1-0.6,11.8,2.1c1.1,0.8,3.9,0.5,5.1-0.4c3.4-2.8,7-2.7,10.6-1.3c2.9,1.1,5,0.4,7.5-1.2
				c2.5-1.6,5.7-2.9,8.5-2.7c4.6,0.4,5.5,0.2,7.6-4c1.2-2.3,3-5.1,5.1-5.8c4.3-1.4,5.2-3.7,4.7-7.8c-0.6-5.1,2.5-8.4,7.7-9.5
				c0.9-0.2,1.9-1.8,2.1-2.9c0.2-1.5-0.6-3-0.8-4.6c-0.6-4.7,1.3-8.6,5.5-10.8c2.3-1.2,2.9-2.8,2-5.1
				C611.1,192.8,609.9,190.8,609.7,188.7z M247,114.6c-2.7,0.3-4.4-0.8-4.7-3.7c-0.2-1.6-0.5-3.3-0.9-5.5c0.3,0,0.6-0.1,0.9-0.1
				c11.2-1.9,22.3-3.8,33.3-5.6c0.4-0.1,0.9-0.1,1.3-0.2c0.2,0.4,0.4,0.8,0.6,1.2c-4.2,3.2-8.5,6.4-12.7,9.8
				c-3.7,2.9-4.9,3.1-10.4,3.7C250.3,114.5,248.7,114.5,247,114.6z M296.8,200.4c-1.9,1.3-7.6,0.4-7.6-0.1c3.4-3.1,4.4-9.8,12.4-6.6
				C299.9,196.1,298.8,199,296.8,200.4z M304.6,177.9c2.5-2,5.1-4.2,8-6.5C312.7,177.5,311.2,178.6,304.6,177.9z M308.8,127.8
				c-0.6,4.1-10.9,1.6-24.9,16.2c-13.7,14.3-13.2,31.7-14.6,32.5s-13.8,0.9-13.8,0.9s11.6-1.1,12.5-2.3c1.4-1.9-0.6-18.1,14.9-34.4
				c8.6-9,23.6-12.4,23.8-13.1c0.5-2,8.2-33.8,8.2-33.8l1.9-0.2C316.7,93.6,309.1,125.6,308.8,127.8z M360.4,137.9
				c4.4,1,8.7,2.2,12.6,4.7c5.4,3.4,6,2.8,2,7.7c-6.8-8.8-18.5-12.3-28.7-11.4C350.1,137.4,356.8,137.1,360.4,137.9z M345.9,122.6
				c-0.7,2.9-6.2,1.9-6.2,1.9s2.4-8.3,4.2-16.3l5.4-0.5C347.6,114.3,346.1,121.6,345.9,122.6z M348.3,92.3c0.7-2.6,5.5-2,5.5-2
				s-1.7,6.6-3.6,14l-5.4,0.3C346.5,98.3,348.1,93,348.3,92.3z M338.4,92.6c0.7-2.6,6-2.1,6-2.1s-2.1,6.8-3.9,14.1l-5.5,0.3
				C336.7,98.7,338.2,93.3,338.4,92.6z M334,108.6l5.6-0.5c-1.6,6.6-3.8,13.7-4,14.6c-0.7,2.9-6,2-6,2S331.8,116.7,334,108.6z
				 M381.2,239.5c-6,7.2-13.8,10.3-22.8,11.5c-10.5,1.4-18.9-2.6-26.5-9.2c-10-8.6-12.3-19.6-10.2-32.2c1.3-7.6,4.4-14.6,9.1-20.3
				c3.8-4.6,9.2-8.5,14.5-11.3c7-3.7,15-4.6,22.6-2.4c5.6,1.6,11,3.9,15,9c8.1,10.2,9.7,15.5,9.8,26.6
				C392.9,222.2,388.1,231.2,381.2,239.5z M443.5,36.2c-0.4,0.1-0.8,0.1-1.2,0.2c-1.8-2.7-3.6-5.3-5.8-8.5c6.7-1,7-0.3,7-0.3
				S443.5,29.7,443.5,36.2z M449,19.7c-0.5,0-1,0-1.5,0c-0.7-5.4-3.7-10.9,1.5-16.2C449,8.9,449,14.3,449,19.7z M464.7,25.8
				c0.2-1.8,1.3-3.4,2-5.2c1.6,1,59.5,9.6,59.5,9.6s7.6,1.7,7.9,5.3c0.6,6.7,2.7,34.5,1.6,41.3c-0.2,0-7.3,1.2-15.4,4.7
				c-8.4,3.7-23.1,15.2-23.6,15.6c-1.1,1-12.7,12.1-12.7,12.1c-8.2,1.9-18.8,1.6-20.8,0c-2.3-1.8-2.1-30.2-2.1-30.2
				S460.8,62.1,464.7,25.8z M458.2,32.2c-0.5,0.1-1,0.1-1.6,0.2c-2.7-4.5-6.8-8.5-5.3-14.5c0.4-1.7,1.7-3.2,2.9-4.5
				c0.3-0.3,5.8,0.5,5.8,0.9C459.8,21.4,458.7,26,458.2,32.2z M510.8,179.9c-1.1-0.1-2.1-1.4-2.6-1.8c0-4.8,2.2-7.2,5.9-7
				c1.4,0.1,3.2,1.3,3.9,2.6C518.8,175.1,513.1,180.1,510.8,179.9z M521.8,157.1c-1.3,1.2-3.6,1.2-5.3,2c-1.6,0.8-2.9,2-4.3,3
				c-0.3-0.1-0.6-5.7,0.4-8c1.7-4.2,4.6-5.7,8.9-4.9c1.2,0.2,3.3,1.8,3.1,2.3C524.1,153.6,523.2,155.8,521.8,157.1z M510.2,124
				c-5.5,6.2-6.9,12.6-11.5,15.2c-5.3,2.9-39.4,1.2-39.4,1.2l0.1-2.8c-0.2-0.1-0.1-0.3,0.1-0.3c0,0,30.7,1.1,32.7-0.5
				c2.1-1.7,6.4-11.5,7.7-13.3c7.6-10.7,17.2-18,23.6-22.2c11.1-7.4,26.3-7.4,26.3-7.4C533.8,98.6,525.8,106.2,510.2,124z
				 M589.1,198.3c-2.8,7.2-7.6,13-13.5,17.1c-5.1,3.5-11.2,5.5-18.2,2.9c-7.2-2.7-12.2-7.4-15.5-13.7c-3.4-6.4-4.7-19.2-4.4-26.8
				c0.4-8.9,4.2-20.2,9.9-25.7c4.4-4.2,8.8-8.1,15.1-8.4c3.5-0.2,7.1,0.2,10.5,0.9c2.2,0.5,4.3,2,6.2,3.4
				c7.1,5.1,10.8,12.6,12.7,20.7C594.1,178.7,592.9,188.5,589.1,198.3z"/>
			<path fill="#394743" d="M564.1,176.5c-3.2,0.3-4.2,2.8-4.2,5.5c0,2.9,1.8,4.4,4.2,4.7c3.5-0.1,5.7-2.3,5.6-5.1
				C569.5,179.2,566.5,176.2,564.1,176.5z"/>
			<path fill="#394743" d="M356.8,207.1c-3.2,0.3-4.2,2.8-4.2,5.5c0,2.9,1.8,4.4,4.2,4.7c3.5-0.1,5.7-2.3,5.6-5.1
				C362.3,209.8,359.3,206.9,356.8,207.1z"/>
		</g>
	</g>
</g>
</svg>
