<?xml version="1.0" encoding="utf-8"?>
<!-- Generator: Adobe Illustrator 18.0.0, SVG Export Plug-In . SVG Version: 6.00 Build 0)  -->
<!DOCTYPE svg PUBLIC "-//W3C//DTD SVG 1.1//EN" "http://www.w3.org/Graphics/SVG/1.1/DTD/svg11.dtd">
<svg version="1.1" id="Layer_1" xmlns="http://www.w3.org/2000/svg" xmlns:xlink="http://www.w3.org/1999/xlink" x="0px" y="0px"
	 viewBox="0 0 1280 800" enable-background="new 0 0 1280 800" xml:space="preserve">
<g>
	<g>
		<rect x="5.6" y="557.3" fill="#F3DF72" width="1268" height="4.1"/>
	</g>
	<g>
		<path fill="#F3DF72" d="M12,192.1h120.3v40H64.7v67.1h54.4v40.4H64.7v161.1H12V192.1z"/>
		<path fill="#F3DF72" d="M261.9,500.5h-49.3c-15.9,0-27.3-3.2-34.4-9.6c-7.1-6.4-10.7-17.6-10.7-33.7V192.1h52.3v257.1
			c0,4.3,0.9,7.2,2.8,8.7c1.9,1.6,4.8,2.4,8.7,2.4h28.4V192.1h51.9v301.2l-49.7,17.5v-10.3H261.9z"/>
		<path fill="#F3DF72" d="M477.6,232.1h-40v268.5h-51.9V232.1h-40v-40h131.7v40H477.6z"/>
		<path fill="#F3DF72" d="M536.7,232.1h-25.1v-40h113.1l34.4,308.4h-50.5l-2.9-36.9h-46.7l-3.3,36.9h-50.9L536.7,232.1z
			 M601.2,424.5l-19.6-193.7L562,424.5H601.2z"/>
		<path fill="#F3DF72" d="M693.5,192.1h49.7l50.1,152.9l50.5-152.9h49.7v308.4h-52.3V352.3l-48,140.7l-47.2-139.7v147.5h-52.7V192.1
			z"/>
		<path fill="#F3DF72" d="M962.8,232.1h-25.1v-40h112.9l34.4,308.4h-50.5l-2.9-36.9h-46.7l-3.3,36.9h-50.9L962.8,232.1z
			 M1027.3,424.5l-19.6-193.7l-19.6,193.7H1027.3z"/>
		<path fill="#F3DF72" d="M1169.2,500.5h-11.9c-7.9,0-14.4-0.4-19.3-1.3c-4.9-0.8-8.8-2.7-11.7-5.3c-2.8-2.7-4.8-6.4-6-11.2
			c-1.2-4.8-1.7-11.2-1.7-19.1V229.1c0-7.9,0.5-14.3,1.7-19.1c1.1-4.8,3.1-8.5,6-11.2c2.8-2.7,6.7-4.4,11.7-5.3
			c4.9-0.8,11.3-1.3,19.3-1.3h65.9c7.9,0,14.4,0.4,19.6,1.3c5.1,0.8,9.1,2.7,12.1,5.3c2.9,2.7,5.1,6.4,6.1,11.2
			c1.1,4.8,1.7,11.2,1.7,19.1v234.5c0,7.6-0.5,13.9-1.5,18.7c-0.9,4.8-2.8,8.5-5.5,11.2c-2.7,2.7-6.4,4.5-11.1,5.5
			c-4.7,0.9-10.8,1.5-18.5,1.5h-11.6v32.9h-45.5V500.5z M1198.1,462.3c5.6,0,9.2-0.7,10.4-1.9c1.3-1.3,1.9-4.8,1.9-10.4V242.7
			c0-5.6-0.7-9.1-1.9-10.4c-1.3-1.3-4.8-1.9-10.4-1.9h-15.3c-5.7,0-9.2,0.7-10.4,1.9c-1.3,1.3-1.9,4.8-1.9,10.4V450
			c0,5.7,0.7,9.2,1.9,10.4c1.3,1.3,4.8,1.9,10.4,1.9L1198.1,462.3L1198.1,462.3z"/>
	</g>
</g>
<g>
	<path fill="#F3DF72" d="M4.7,631.2c2.9,1.8,7.1,3.3,11.5,3.3c6.6,0,10.4-3.5,10.4-8.5c0-4.7-2.7-7.3-9.4-9.9
		c-8.1-2.9-13.2-7.1-13.2-14.1c0-7.8,6.4-13.5,16.1-13.5c5.1,0,8.8,1.2,11,2.4l-1.8,5.3c-1.6-0.9-5-2.4-9.5-2.4
		c-6.8,0-9.4,4.1-9.4,7.5c0,4.7,3,7,9.9,9.6c8.4,3.3,12.7,7.3,12.7,14.7c0,7.7-5.7,14.4-17.5,14.4c-4.8,0-10.1-1.4-12.7-3.2
		L4.7,631.2z"/>
	<path fill="#F3DF72" d="M100.2,615.6H80.8v18h21.6v5.4h-28v-49.9h26.9v5.4H80.8v15.8h19.4V615.6z"/>
	<path fill="#F3DF72" d="M143,589.8c3.3-0.7,7.9-1,12.4-1c6.9,0,11.3,1.3,14.4,4.1c2.5,2.2,3.9,5.6,3.9,9.5c0,6.6-4.1,11-9.4,12.7
		v0.2c3.8,1.3,6.1,4.9,7.3,10.1c1.6,7,2.8,11.8,3.8,13.7h-6.7c-0.8-1.4-1.9-5.7-3.3-11.9c-1.5-6.9-4.1-9.5-10-9.7h-6.1V639H143
		V589.8z M149.5,612.5h6.6c6.9,0,11.2-3.8,11.2-9.5c0-6.4-4.7-9.2-11.5-9.3c-3.1,0-5.3,0.3-6.4,0.6V612.5z"/>
	<path fill="#F3DF72" d="M227.3,639L211,589.1h7l7.8,24.6c2.1,6.7,4,12.8,5.3,18.6h0.1c1.4-5.8,3.5-12.1,5.7-18.6l8.4-24.6h6.9
		L234.4,639H227.3z"/>
	<path fill="#F3DF72" d="M296.3,589.1V639h-6.4v-49.9H296.3z"/>
	<path fill="#F3DF72" d="M374.7,637.4c-2.4,1.2-7.1,2.4-13.2,2.4c-14.1,0-24.6-8.9-24.6-25.2c0-15.6,10.6-26.2,26-26.2
		c6.2,0,10.1,1.3,11.8,2.2l-1.6,5.3c-2.4-1.2-5.9-2.1-10.1-2.1c-11.7,0-19.5,7.5-19.5,20.6c0,12.2,7,20.1,19.2,20.1
		c3.9,0,7.9-0.8,10.5-2.1L374.7,637.4z"/>
	<path fill="#F3DF72" d="M421.4,589.1V639H415v-49.9H421.4z"/>
	<path fill="#F3DF72" d="M507.6,613.6c0,17.2-10.4,26.3-23.2,26.3c-13.2,0-22.4-10.2-22.4-25.3c0-15.8,9.8-26.2,23.2-26.2
		C498.8,588.3,507.6,598.8,507.6,613.6z M468.9,614.4c0,10.7,5.8,20.2,15.9,20.2c10.2,0,16-9.4,16-20.7c0-9.9-5.2-20.3-15.9-20.3
		C474.2,593.6,468.9,603.4,468.9,614.4z"/>
	<path fill="#F3DF72" d="M547.3,631.2c2.9,1.8,7.1,3.3,11.5,3.3c6.6,0,10.4-3.5,10.4-8.5c0-4.7-2.7-7.3-9.4-9.9
		c-8.1-2.9-13.2-7.1-13.2-14.1c0-7.8,6.4-13.5,16.1-13.5c5.1,0,8.8,1.2,11,2.4l-1.8,5.3c-1.6-0.9-5-2.4-9.5-2.4
		c-6.8,0-9.4,4.1-9.4,7.5c0,4.7,3,7,9.9,9.6c8.4,3.3,12.7,7.3,12.7,14.7c0,7.7-5.7,14.4-17.5,14.4c-4.8,0-10.1-1.4-12.7-3.2
		L547.3,631.2z"/>
	<path fill="#F3DF72" d="M673,623.3l-5.2,15.7h-6.7l16.9-49.9h7.8l17,49.9H696l-5.3-15.7H673z M689.3,618.3l-4.9-14.4
		c-1.1-3.3-1.9-6.2-2.6-9.1h-0.1c-0.7,3-1.6,6-2.5,9l-4.9,14.4H689.3z"/>
	<path fill="#F3DF72" d="M779.3,636.8c-2.9,1-8.6,2.7-15.3,2.7c-7.5,0-13.8-1.9-18.6-6.6c-4.3-4.1-7-10.8-7-18.6
		c0.1-14.9,10.3-25.8,27-25.8c5.8,0,10.3,1.3,12.4,2.3l-1.6,5.3c-2.7-1.2-6-2.1-11-2.1c-12.1,0-20.1,7.5-20.1,20.1
		c0,12.7,7.6,20.1,19.2,20.1c4.2,0,7.1-0.6,8.6-1.3V618h-10.1v-5.2h16.4V636.8z"/>
	<path fill="#F3DF72" d="M821.4,589.8c3.3-0.7,7.9-1,12.4-1c6.9,0,11.3,1.3,14.4,4.1c2.5,2.2,3.9,5.6,3.9,9.5c0,6.6-4.1,11-9.4,12.7
		v0.2c3.8,1.3,6.1,4.9,7.3,10.1c1.6,7,2.8,11.8,3.8,13.7h-6.7c-0.8-1.4-1.9-5.7-3.3-11.9c-1.5-6.9-4.1-9.5-10-9.7h-6.1V639h-6.4
		V589.8z M827.8,612.5h6.6c6.9,0,11.2-3.8,11.2-9.5c0-6.4-4.7-9.2-11.5-9.3c-3.1,0-5.3,0.3-6.4,0.6V612.5z"/>
	<path fill="#F3DF72" d="M907.5,577.8l-9.5,8.7h-5.3l6.8-8.7H907.5z M899.9,589.1V639h-6.4v-49.9H899.9z"/>
	<path fill="#F3DF72" d="M978.3,637.4c-2.4,1.2-7.1,2.4-13.2,2.4c-14.1,0-24.6-8.9-24.6-25.2c0-15.6,10.6-26.2,26-26.2
		c6.2,0,10.1,1.3,11.8,2.2l-1.6,5.3c-2.4-1.2-5.9-2.1-10.1-2.1c-11.7,0-19.5,7.5-19.5,20.6c0,12.2,7,20.1,19.2,20.1
		c3.9,0,7.9-0.8,10.5-2.1L978.3,637.4z"/>
	<path fill="#F3DF72" d="M1059.7,613.6c0,17.2-10.4,26.3-23.2,26.3c-13.2,0-22.4-10.2-22.4-25.3c0-15.8,9.8-26.2,23.2-26.2
		C1050.9,588.3,1059.7,598.8,1059.7,613.6z M1021,614.4c0,10.7,5.8,20.2,15.9,20.2c10.2,0,16-9.4,16-20.7c0-9.9-5.2-20.3-15.9-20.3
		C1026.3,593.6,1021,603.4,1021,614.4z"/>
	<path fill="#F3DF72" d="M1100.3,589.1h6.4v44.5h21.3v5.4h-27.8V589.1z"/>
	<path fill="#F3DF72" d="M1175.6,623.3l-5.2,15.7h-6.7l16.9-49.9h7.8l17,49.9h-6.9l-5.3-15.7H1175.6z M1191.9,618.3l-4.9-14.4
		c-1.1-3.3-1.9-6.2-2.6-9.1h-0.1c-0.7,3-1.6,6-2.5,9l-4.9,14.4H1191.9z"/>
	<path fill="#F3DF72" d="M1244.2,631.2c2.9,1.8,7.1,3.3,11.5,3.3c6.6,0,10.4-3.5,10.4-8.5c0-4.7-2.7-7.3-9.4-9.9
		c-8.1-2.9-13.2-7.1-13.2-14.1c0-7.8,6.4-13.5,16.1-13.5c5.1,0,8.8,1.2,11,2.4l-1.8,5.3c-1.6-0.9-5-2.4-9.5-2.4
		c-6.8,0-9.4,4.1-9.4,7.5c0,4.7,3,7,9.9,9.6c8.4,3.3,12.7,7.3,12.7,14.7c0,7.7-5.7,14.4-17.5,14.4c-4.8,0-10.1-1.4-12.7-3.2
		L1244.2,631.2z"/>
</g>
</svg>
